<?xml version="1.0" encoding="utf-8"?>
<!-- Generator: Adobe Illustrator 28.3.0, SVG Export Plug-In . SVG Version: 6.00 Build 0)  -->
<svg version="1.1" id="图层_1" xmlns="http://www.w3.org/2000/svg" xmlns:xlink="http://www.w3.org/1999/xlink" x="0px" y="0px"
	 viewBox="0 0 240.01 74.85" style="enable-background:new 0 0 240.01 74.85;" xml:space="preserve">
<style type="text/css">
	.st0{fill-rule:evenodd;clip-rule:evenodd;fill:#F70000;}
	.st1{fill-rule:evenodd;clip-rule:evenodd;}
</style>
<g>
	<polygon class="st0" points="24.34,8.94 49.67,8.94 49.67,0 0,0 0,69.27 24.34,63.89 	"/>
	<polygon class="st0" points="74.01,8.94 49.67,8.94 49.67,58.31 24.35,63.89 74.01,74.85 	"/>
	<path class="st1" d="M113.58,42.17l-2.81-5.3h31.47l-2.81,5.3h-7.59v3.15h28.62l-2.85,5.3h-25.77v14.41h-10.67V50.62H94.88
		l-2.85-5.3h29.14v-3.15H113.58z M217.04,59.42l-2.81,5.61h14.17h8.31v-5.3V22.14h1.52l1.78-5.3h-3.3V9.09h-8.31v7.75h-15l3.23,5.3
		h11.77v37.29h-11.36V59.42z M184.9,46.72l-2.81-5.3h27.8l-2.81,5.3h-7.14v18.31h-10.13l0.51-5.55h1.97V46.71L184.9,46.72
		L184.9,46.72z M185.7,38.27l-2.81-5.3h26.22l-2.81,5.3H185.7z M170.94,49.16l-1.7,15.87h8.7l1.62-15.87V29.83h22.45h8.38v-19.1
		h-39.45V49.16z M179.56,16.04h22.45v8.49h-22.45V16.04z M217.35,52.49l-1.8-23.57h6.99l1.8,23.57H217.35z M204.43,65.03h5.73
		l-1.74-15.14h-5.73L204.43,65.03z M187.56,65.03l1.74-15.14h-5.73l-1.74,15.14H187.56z M96.01,16.86h13.86l-2.12,3.13H95.01
		l2.73,5.3h6.42l-2.12,3.13H92.2l2.81,5.3h3.44l-5.73,8.46h10.25l5.73-8.46h35.1l5.73,8.46h10.25l-5.73-8.46h3.44l2.81-5.3h-48.01
		l2.12-3.13h40.34l2.73-5.3H118l2.12-3.13h36.35l2.73-5.3h-35.49l2.12-3.13h-10.25l-2.12,3.13H93.27L96.01,16.86z M139.58,53.77
		l7.62,11.26h10.87l-7.62-11.26H140.2H139.58z M112.91,53.77h-10.87l-7.62,11.26h10.87L112.91,53.77z"/>
</g>
</svg>
